<svg width="24" height="24" viewBox="0 0 24 24" fill="none" xmlns="http://www.w3.org/2000/svg">
<path d="M4.2642 8.27273H6.04972L8.18466 12.1335H8.26989L10.4048 8.27273H12.1903L9.01562 13.7443V17H7.43892V13.7443L4.2642 8.27273Z" fill="#1F2937"/>
<path d="M18.3622 8.27273H19.9432V13.9744C19.9432 14.5994 19.7955 15.1491 19.5 15.6236C19.2074 16.098 18.7955 16.4687 18.2642 16.7358C17.733 17 17.1122 17.1321 16.402 17.1321C15.6889 17.1321 15.0668 17 14.5355 16.7358C14.0043 16.4687 13.5923 16.098 13.2997 15.6236C13.0071 15.1491 12.8608 14.5994 12.8608 13.9744V8.27273H14.4418V13.8423C14.4418 14.206 14.5213 14.5298 14.6804 14.8139C14.8423 15.098 15.0696 15.321 15.3622 15.483C15.6548 15.642 16.0014 15.7216 16.402 15.7216C16.8026 15.7216 17.1491 15.642 17.4418 15.483C17.7372 15.321 17.9645 15.098 18.1236 14.8139C18.2827 14.5298 18.3622 14.206 18.3622 13.8423V8.27273Z" fill="#1F2937"/>
<path d="M17 2H7C4.23858 2 2 4.23858 2 7V17C2 19.7614 4.23858 22 7 22H17C19.7614 22 22 19.7614 22 17V7C22 4.23858 19.7614 2 17 2Z" stroke="#1F2937" stroke-width="2" stroke-linecap="round" stroke-linejoin="round"/>
</svg>
